<svg xmlns="http://www.w3.org/2000/svg" viewBox="0 0 1920 1080" preserveAspectRatio="xMidYMid slice">
  <defs>
    <linearGradient id="sky3" x1="0" y1="0" x2="0" y2="1">
      <stop offset="0%" stop-color="#a5d6a7"/>
      <stop offset="40%" stop-color="#81c784"/>
      <stop offset="100%" stop-color="#66bb6a"/>
    </linearGradient>
    <linearGradient id="trunk3" x1="0" y1="0" x2="0" y2="1">
      <stop offset="0%" stop-color="#5d4037"/>
      <stop offset="100%" stop-color="#4e342e"/>
    </linearGradient>
  </defs>
  <rect width="1920" height="1080" fill="url(#sky3)"/>
  <!-- Light rays -->
  <g opacity="0.08" fill="#fff">
    <polygon points="960,0 800,1080 1120,1080"/>
    <polygon points="600,0 500,1080 700,1080"/>
    <polygon points="1300,0 1200,1080 1400,1080"/>
  </g>
  <!-- Forest background -->
  <g opacity="0.3">
    <rect x="280" y="250" width="12" height="350" fill="#4e342e"/>
    <ellipse cx="286" cy="250" rx="55" ry="90" fill="#2e7d32"/>
    <rect x="580" y="200" width="14" height="400" fill="#4e342e"/>
    <ellipse cx="587" cy="200" rx="65" ry="100" fill="#388e3c"/>
    <rect x="1300" y="230" width="12" height="370" fill="#4e342e"/>
    <ellipse cx="1306" cy="230" rx="58" ry="95" fill="#2e7d32"/>
    <rect x="1600" y="210" width="14" height="390" fill="#4e342e"/>
    <ellipse cx="1607" cy="210" rx="62" ry="98" fill="#388e3c"/>
  </g>
  <!-- Mid forest -->
  <g opacity="0.5">
    <rect x="150" y="350" width="16" height="400" fill="url(#trunk3)"/>
    <ellipse cx="158" cy="320" rx="70" ry="100" fill="#388e3c"/>
    <rect x="450" y="300" width="18" height="450" fill="url(#trunk3)"/>
    <ellipse cx="459" cy="270" rx="80" ry="110" fill="#2e7d32"/>
    <rect x="750" y="330" width="16" height="420" fill="url(#trunk3)"/>
    <ellipse cx="758" cy="300" rx="72" ry="105" fill="#388e3c"/>
    <rect x="1050" y="310" width="18" height="440" fill="url(#trunk3)"/>
    <ellipse cx="1059" cy="280" rx="78" ry="108" fill="#2e7d32"/>
    <rect x="1400" y="340" width="16" height="410" fill="url(#trunk3)"/>
    <ellipse cx="1408" cy="310" rx="70" ry="100" fill="#388e3c"/>
    <rect x="1750" y="320" width="18" height="430" fill="url(#trunk3)"/>
    <ellipse cx="1759" cy="290" rx="75" ry="105" fill="#2e7d32"/>
  </g>
  <!-- Forest floor -->
  <path d="M0 700 Q480 680 960 690 Q1440 670 1920 700 L1920 1080 L0 1080Z" fill="#2e7d32" opacity="0.8"/>
  <path d="M0 780 Q480 760 960 770 Q1440 750 1920 780 L1920 1080 L0 1080Z" fill="#1b5e20" opacity="0.9"/>
  <path d="M0 860 Q480 850 960 855 Q1440 845 1920 860 L1920 1080 L0 1080Z" fill="#145a24"/>
  <!-- Ferns -->
  <g fill="#4caf50" opacity="0.3">
    <path d="M100 800 Q130 760 140 800 Q130 790 120 800 Q130 780 100 800Z"/>
    <path d="M500 790 Q530 750 540 790 Q530 780 520 790 Q530 770 500 790Z"/>
    <path d="M900 795 Q930 755 940 795 Q930 785 920 795 Q930 775 900 795Z"/>
    <path d="M1300 785 Q1330 745 1340 785 Q1330 775 1320 785 Q1330 765 1300 785Z"/>
    <path d="M1700 792 Q1730 752 1740 792 Q1730 782 1720 792 Q1730 772 1700 792Z"/>
  </g>
</svg>
